<?xml version="1.0" standalone="no"?>
<!DOCTYPE svg PUBLIC "-//W3C//DTD SVG 20010904//EN"
 "http://www.w3.org/TR/2001/REC-SVG-20010904/DTD/svg10.dtd">
<svg version="1.0" xmlns="http://www.w3.org/2000/svg"
 width="706.000000pt" height="570.000000pt" viewBox="0 0 706.000000 570.000000"
 preserveAspectRatio="xMidYMid meet">

<g transform="translate(0.000000,570.000000) scale(0.100000,-0.100000)"
fill="#000000" stroke="none">
<path d="M1 5523 c0 -175 1 -177 15 -123 38 141 143 246 284 284 54 14 53 15
-122 15 l-178 1 1 -177z"/>
<path d="M6757 5685 c143 -39 249 -144 287 -285 14 -54 15 -52 15 123 l1 177
-177 -1 c-172 0 -176 -1 -126 -14z"/>
<path d="M700 5266 c-148 -42 -256 -153 -290 -298 -6 -28 -10 -781 -10 -2108
0 -2187 -1 -2106 45 -2203 43 -92 148 -174 259 -203 76 -21 5576 -21 5652 0
149 39 260 153 294 298 6 28 10 781 10 2108 0 1718 -3 2074 -14 2116 -33 123
-108 212 -224 267 l-67 32 -2805 2 c-2228 1 -2814 -1 -2850 -11z m4981 -842
c30 -9 73 -29 97 -45 24 -16 48 -27 53 -23 5 3 8 0 7 -8 -2 -7 4 -12 12 -10 8
2 12 1 8 -3 -4 -4 11 -32 32 -64 75 -110 71 -18 68 -1442 l-3 -1274 -32 -65
c-17 -36 -46 -81 -62 -99 -17 -19 -31 -39 -31 -44 0 -6 -3 -8 -6 -5 -3 4 -21
-4 -41 -17 -19 -13 -59 -33 -89 -45 -55 -20 -64 -20 -2148 -20 -2325 0 -2144
-5 -2253 67 -60 40 -98 84 -139 163 l-29 55 0 1305 0 1305 30 60 c52 103 159
192 259 216 17 4 972 7 2122 8 1892 1 2096 -1 2145 -15z m-4371 -19 c0 -2 -6
-5 -13 -8 -8 -3 -14 1 -14 8 0 7 6 11 14 8 7 -3 13 -6 13 -8z m4470 11 c0 -11
-19 -15 -25 -6 -3 5 1 10 9 10 9 0 16 -2 16 -4z m237 -2868 c-3 -8 -6 -5 -6 6
-1 11 2 17 5 13 3 -3 4 -12 1 -19z m-4777 -230 c0 -6 -6 -5 -15 2 -8 7 -15 14
-15 16 0 2 7 1 15 -2 8 -4 15 -11 15 -16z m233 -75 c-7 -2 -19 -2 -25 0 -7 3
-2 5 12 5 14 0 19 -2 13 -5z m-516 -115 c-3 -8 -6 -5 -6 6 -1 11 2 17 5 13 3
-3 4 -12 1 -19z m5130 0 c-3 -8 -6 -5 -6 6 -1 11 2 17 5 13 3 -3 4 -12 1 -19z
m-74 -75 c-7 -2 -19 -2 -25 0 -7 3 -2 5 12 5 14 0 19 -2 13 -5z m-4745 -80
c-10 -2 -28 -2 -40 0 -13 2 -5 4 17 4 22 1 32 -1 23 -4z m4550 0 c-10 -2 -28
-2 -40 0 -13 2 -5 4 17 4 22 1 32 -1 23 -4z"/>
<path d="M2765 4037 c-45 -26 -73 -72 -58 -96 18 -28 33 -24 33 9 0 44 47 90
92 90 41 0 58 -15 58 -52 0 -26 -24 -88 -34 -88 -3 0 -11 -3 -19 -6 -14 -5
-14 1 -2 53 8 32 14 61 15 66 0 11 -48 8 -56 -4 -6 -10 -54 -223 -54 -241 0
-5 13 -8 29 -8 28 0 30 3 37 45 7 50 25 75 53 75 21 0 66 46 75 77 26 84 -77
132 -169 80z"/>
<path d="M3895 4033 c-18 -18 -16 -32 8 -47 21 -13 51 13 42 36 -10 24 -32 29
-50 11z"/>
<path d="M3775 3990 c-4 -16 -10 -30 -13 -30 -4 0 -8 -20 -8 -43 -2 -67 -22
-117 -46 -117 -16 0 -19 4 -14 23 15 53 18 107 7 121 -8 9 -33 14 -75 14 l-63
0 -11 -61 c-13 -68 -47 -111 -86 -105 -25 4 -37 48 -12 48 8 0 29 12 46 26 25
21 30 33 28 58 -3 28 -7 31 -40 34 -48 4 -83 -28 -100 -92 -7 -25 -15 -46 -19
-46 -4 0 -10 34 -14 75 -7 73 -8 75 -35 75 -24 0 -30 -7 -48 -57 -34 -93 -100
-147 -129 -107 -19 25 -17 29 22 43 39 14 70 61 60 91 -10 32 -74 27 -108 -7
-36 -39 -53 -117 -32 -149 19 -29 78 -33 113 -8 20 14 24 14 38 0 22 -22 71
-20 106 5 l29 21 20 -21 c23 -25 68 -27 109 -6 27 14 30 14 30 0 0 -9 9 -15
25 -15 20 0 26 7 35 43 24 99 31 117 46 117 12 0 14 -14 12 -77 l-3 -78 27 -3
c15 -2 37 2 50 9 16 9 23 9 26 0 5 -16 54 -14 79 4 18 12 22 13 26 1 4 -10 25
-14 75 -14 l70 0 12 61 c15 73 37 114 52 99 8 -8 7 -29 -2 -71 -10 -49 -10
-64 0 -76 16 -19 64 -19 80 0 10 13 14 13 28 -1 11 -11 27 -14 51 -11 20 3 31
3 25 1 -6 -3 -9 -16 -6 -29 3 -17 -1 -27 -12 -31 -26 -10 -31 4 -11 26 14 16
15 20 4 20 -21 0 -39 -21 -39 -45 0 -29 19 -45 51 -45 42 0 63 36 88 156 12
60 25 117 27 126 4 14 -4 17 -62 17 -78 0 -105 -20 -124 -90 -7 -24 -14 -50
-16 -56 -5 -20 -34 -15 -34 5 0 9 5 36 10 60 16 67 4 80 -74 80 l-65 0 -11
-56 c-15 -79 -26 -102 -50 -102 -21 0 -21 15 1 100 14 53 11 60 -19 60 -27 0
-29 -3 -41 -67 -14 -72 -25 -93 -47 -93 -17 0 -18 23 -2 89 7 30 17 51 25 51
7 0 13 5 13 10 0 6 -5 10 -11 10 -7 0 -9 11 -5 30 5 28 3 30 -23 30 -24 0 -31
-5 -36 -30z m-583 -76 c-4 -23 -45 -60 -50 -46 -2 6 4 25 13 42 17 33 42 36
37 4z m308 6 c0 -11 -10 -30 -22 -42 -21 -21 -23 -21 -26 -5 -4 20 23 67 38
67 6 0 10 -9 10 -20z m770 -58 c-12 -46 -19 -58 -37 -60 -19 -3 -23 1 -23 23
0 31 26 96 43 107 25 15 31 -12 17 -70z m-970 -12 c0 -53 -13 -69 -47 -56 -15
6 -15 8 1 19 10 7 16 17 15 22 -4 17 13 65 22 65 5 0 9 -23 9 -50z"/>
<path d="M2959 3958 c0 -2 -11 -46 -23 -98 l-23 -95 25 -3 c31 -4 37 6 52 84
13 70 32 96 48 68 12 -22 42 -11 42 16 0 26 -27 37 -51 21 -12 -7 -19 -7 -19
-1 0 8 -48 15 -51 8z"/>
<path d="M1929 2777 c-131 -37 -247 -162 -314 -340 -57 -151 -82 -388 -54
-516 26 -124 111 -190 253 -199 134 -8 256 34 344 118 l41 39 21 -45 c28 -58
84 -95 150 -102 62 -6 145 31 189 84 l28 36 23 -47 c42 -88 151 -100 254 -30
47 32 49 31 41 -5 l-7 -30 101 0 c86 0 100 2 105 18 3 9 26 114 51 232 25 118
55 234 66 258 25 51 70 79 104 64 41 -19 40 -56 -10 -287 -37 -170 -23 -235
60 -275 78 -38 165 -20 237 50 l46 45 16 -30 c36 -66 127 -98 212 -75 29 9 65
30 97 60 l51 47 18 -39 c41 -92 198 -91 293 2 l40 40 29 -36 c60 -76 190 -100
293 -55 101 45 187 169 213 312 7 35 14 69 15 75 3 9 104 38 111 32 1 -2 -17
-98 -42 -213 -24 -116 -44 -213 -44 -217 0 -5 45 -8 100 -8 95 0 100 1 105 23
2 12 25 121 50 242 25 121 50 234 55 250 11 35 55 65 94 65 21 0 27 -7 36 -40
8 -29 17 -41 35 -46 62 -15 120 38 119 108 -2 53 -46 98 -97 98 -34 0 -110
-31 -121 -49 -4 -6 -16 -16 -28 -22 -17 -9 -19 -8 -14 10 19 67 28 61 -86 61
l-104 0 -18 -94 c-18 -89 -20 -93 -51 -105 -17 -6 -45 -11 -62 -11 -29 0 -31
2 -37 53 -9 68 -46 130 -90 151 -44 21 -139 21 -200 0 -59 -20 -140 -94 -185
-169 -42 -70 -81 -199 -81 -271 0 -45 -5 -59 -31 -89 -26 -29 -38 -35 -70 -35
-69 0 -69 3 26 447 47 218 83 398 82 400 -5 4 -196 -23 -202 -28 -4 -4 -65
-279 -65 -297 0 -4 -5 1 -11 11 -13 23 -68 47 -107 47 -50 0 -128 -29 -176
-66 -91 -69 -165 -223 -182 -375 -7 -66 -32 -122 -60 -133 -26 -10 -69 -7 -82
6 -19 19 -14 77 18 211 49 206 37 296 -45 336 -61 30 -161 12 -219 -38 -18
-15 -19 -15 -13 17 l7 32 -100 0 -99 0 -10 -37 c-6 -21 -26 -114 -46 -208 -19
-93 -42 -192 -50 -220 -29 -100 -112 -149 -151 -90 -18 28 -21 11 60 393 l34
163 -101 -3 c-99 -3 -101 -4 -107 -28 l-6 -25 -12 22 c-24 44 -132 53 -218 17
-46 -19 -115 -84 -154 -143 -41 -64 -80 -179 -87 -258 -5 -55 -10 -67 -37 -90
-58 -49 -134 -77 -213 -78 -81 0 -113 16 -147 75 -58 98 -15 424 80 613 67
132 116 177 193 177 49 0 74 -30 73 -90 -1 -42 -13 -73 -45 -107 l-20 -23 38
-16 c82 -34 145 17 145 118 0 68 -35 128 -93 157 -58 29 -177 38 -248 18z
m2873 -424 c18 -16 26 -73 10 -73 -12 0 -32 -47 -32 -75 0 -14 9 -34 19 -44
18 -18 19 -23 5 -82 -17 -74 -68 -173 -102 -200 -32 -24 -74 -24 -97 1 -13 14
-17 37 -18 92 0 153 83 357 158 388 29 13 37 12 57 -7z m-2157 -16 c14 -22 12
-38 -24 -205 -48 -222 -71 -262 -150 -262 -45 0 -61 30 -61 115 0 128 54 279
121 340 47 42 91 47 114 12z m1440 3 c18 -20 17 -25 -20 -198 -21 -97 -44
-189 -51 -204 -32 -63 -105 -87 -144 -48 -54 54 8 336 93 429 41 44 93 53 122
21z"/>
<path d="M1 178 l-1 -178 178 1 c174 0 176 1 122 15 -142 38 -251 149 -286
289 -11 46 -12 35 -13 -127z"/>
<path d="M7046 306 c-19 -122 -154 -259 -290 -292 -47 -11 -37 -12 127 -13
l177 -1 0 175 c0 96 -2 175 -4 175 -2 0 -7 -20 -10 -44z"/>
</g>
</svg>
